<svg viewBox="0 0 310 310" xmlns="http://www.w3.org/2000/svg"><g fill="#fff"><path d="M84.61 16.17a11.64 11.64 0 0 1 6.83.59 10.71 10.71 0 0 1 6.13 7.52 12 12 0 0 1-.91 6.86 10.51 10.51 0 0 1-11.87 5.65 10.84 10.84 0 0 1-8.23-10.48 10.63 10.63 0 0 1 8-10.14M220.31 16.15a11.55 11.55 0 0 1 6.9.69 10.77 10.77 0 0 1 6.17 9.05 11.08 11.08 0 0 1-3.16 8.11 10.46 10.46 0 0 1-17.06-3.1c-1-2.05-.92-4.41-.78-6.64a10.7 10.7 0 0 1 7.93-8.06M61.19 176.58H222.8c-.67 21.33-.12 42.67-.25 64H61.49c-.13-21.33.46-42.67-.3-64"/></g><path d="M220.31 16.15a10.7 10.7 0 0 0-7.93 8.06c-.14 2.23-.27 4.59.78 6.64A10.46 10.46 0 0 0 230.22 34a11.08 11.08 0 0 0 3.16-8.06 10.77 10.77 0 0 0-6.17-9 11.55 11.55 0 0 0-6.9-.69m-135.7 0a10.63 10.63 0 0 0-8 10.14 10.82 10.82 0 0 0 8.23 10.48 10.51 10.51 0 0 0 11.87-5.66 11.91 11.91 0 0 0 .91-6.85 10.71 10.71 0 0 0-6.13-7.52 11.64 11.64 0 0 0-6.83-.59M32.68 6.84a25.19 25.19 0 0 1 10.78-1.62h225.58a21.34 21.34 0 0 1 21.45 22c0 7.31.07 14.62 0 21.93a21.9 21.9 0 0 0-7.62-1.19H27.62a23.55 23.55 0 0 0-8 1.17c-.11-7.59 0-15.18-.07-22.77A21.32 21.32 0 0 1 32.68 6.84M219.05 112.54a8.13 8.13 0 0 1 3.79-.37c-.07 21.41 0 42.81 0 64.22v.19h-16.1V132c-10.7 3.55-21.38 7.17-32.09 10.71v-14.5c14.81-5.28 29.66-10.42 44.47-15.67M88.09 120.23a41.37 41.37 0 0 1 23.48-8.06c8.31-.29 16.92 1 24.19 5.28a30 30 0 0 1 12.79 14.71 40.13 40.13 0 0 1 2.51 19.46c-1.61 10.5-9.72 19-19.2 23.18a23.93 23.93 0 0 1 3.94 1.56 11.2 11.2 0 0 1-2.52.22c-11.17-.07-22.35.08-33.52-.07 0-2.43-.1-4.86 0-7.28 8.06-.19 16.56.79 24.1-2.74a19.59 19.59 0 0 0 11.68-15.23c.75-6.37.1-13.34-3.67-18.73-3-4.27-8-6.63-13-7.38-6.79-1-14.24-.27-19.94 3.85-5.62 3.95-8.59 10.92-8.44 17.68-5.18.14-10.35 0-15.53 0a37.53 37.53 0 0 1 1.04-8.4 32.73 32.73 0 0 1 12.06-18" fill="#c7c7c7"/><path d="M19.58 49.11a23.55 23.55 0 0 1 8-1.17h255.25a21.9 21.9 0 0 1 7.62 1.19c7.35 2.65 13.31 9.46 14.07 17.35A22.64 22.64 0 0 0 295 53a21.92 21.92 0 0 0-11.72-3.4q-128 .07-256.07 0a21.69 21.69 0 0 0-17 7.67c-2 2.12-3 4.87-4.42 7.37 1.38-7.19 7-13.19 13.84-15.62M206.4 176.42h.3v.19c.07 21.33 0 42.67 0 64h16v-64.19h.26a67.44 67.44 0 0 0 7.11.14h60.32c2.33 33.62 4.51 67.25 6.81 100.87.22 3.85.71 7.8-.35 11.56l-.1.12a19.5 19.5 0 0 0-2.26 3.78 21.44 21.44 0 0 1-18 10.23q-120.31-.08-240.62 0a28.82 28.82 0 0 1-7.53-.53A21.79 21.79 0 0 1 15 292.37a19.54 19.54 0 0 0-1.91-3.24L13 289c-1.34-5-.25-10.26-.08-15.36 2.21-32.34 4.31-64.7 6.54-97q40.1-.09 80.2 0v4.61c8.47.16 17.33-.85 25.36 2.5a19.59 19.59 0 0 1 11.58 12.24 30.5 30.5 0 0 1-.55 19.12 19.56 19.56 0 0 1-12.81 11.8 32.19 32.19 0 0 1-21.62-1 19.75 19.75 0 0 1-11.19-12.31 26.8 26.8 0 0 1-1.08-7.6H73.99a32.42 32.42 0 0 0 21.67 31.34 51.35 51.35 0 0 0 26.28 2.66c8.54-1.36 16.91-5.18 22.71-11.73a34.85 34.85 0 0 0 8.45-21.72c.49-7.53-1.24-15.44-6-21.42-2.69-3.54-6.38-6.1-10.16-8.35a42.68 42.68 0 0 1 5.54-.17h56.82c2.38-.05 4.76.15 7.13-.13" fill="#4483ef"/><path d="M10.16 57.36a21.69 21.69 0 0 1 17-7.67h256.07A21.92 21.92 0 0 1 295 53a22.7 22.7 0 0 1 9.57 13.42 18 18 0 0 1 .08 5.82c-4.64 34.73-9.45 69.44-14 104.19h-57.88c-3.22 0-6.44.12-9.65-.05h-.26v-64.22a8.13 8.13 0 0 0-3.79.37c-14.81 5.25-29.66 10.4-44.47 15.67.06 4.83 0 9.67 0 14.5 10.71-3.54 21.39-7.16 32.09-10.71v44.39h-.3c-22.42.16-44.85 0-67.27.09-1.11 0-2.28.31-3.33-.15a23.93 23.93 0 0 0-3.94-1.56c9.48-4.2 17.59-12.68 19.2-23.17a40.15 40.15 0 0 0-2.51-19.47 30 30 0 0 0-12.79-14.71c-7.27-4.23-15.88-5.57-24.19-5.28a41.37 41.37 0 0 0-23.48 8.06 32.73 32.73 0 0 0-12.06 18 37.53 37.53 0 0 0-1.02 8.54c5.18 0 10.35.09 15.53 0-.15-6.76 2.83-13.73 8.44-17.68 5.7-4.12 13.15-4.8 19.94-3.85 5 .75 10.07 3.11 13 7.38 3.77 5.39 4.42 12.36 3.67 18.73a19.59 19.59 0 0 1-11.68 15.23c-7.54 3.53-16 2.55-24.1 2.74h-.2c.09 2.43 0 4.86.06 7.29q-40.12-.06-80.24 0-6.83-51.1-13.77-102.13a23.88 23.88 0 0 1 .09-9.71c1.39-2.5 2.43-5.25 4.42-7.37M13.12 289.13a19.54 19.54 0 0 1 1.88 3.24 21.79 21.79 0 0 0 13.36 10.21 28.79 28.79 0 0 0 7.53.53h240.62a21.44 21.44 0 0 0 18-10.23 20 20 0 0 1 2.26-3.78 21.23 21.23 0 0 1-14 14.66c-3.76 1.32-7.79 1-11.69 1H36.77a28.88 28.88 0 0 1-9.31-.92 21.32 21.32 0 0 1-14.34-14.73" fill="#3664d0"/></svg>